<svg xmlns="http://www.w3.org/2000/svg" height="293.8" viewBox="0 0 383.27832 293.79599" width="383.28"><g transform="matrix(1.25 0 0 -1.25 -191.14 642.39)"><g transform="matrix(.5 0 0 .5 153.33 198)"><path d="m113.27 630.23-27.669-116.84h27.316l-55.969-230.75h-27.053l-29.898-120.88h524.28l29.437 120.83h-64.491l-61.025 147.92 96.681 82.805h58.406l28.362 116.87-498.37 0.0461" fill="#efab00"/><path d="m415.47 433.49 66.566-161.5h57.812l-23.777-99.568h-502.27l24.228 99.632h27.302l60.958 251.96h-27.868l23.617 96.915 476.73-0.0462-24.317-96.915h-53.65l-105.33-90.479" fill="#fff"/><path d="m560.17 542.05 14.327 60.842h-230.14l-15.029-60.842h26.364l-103.87-87.773 21.225 87.773 18.754 0.002 15.03 60.84h-170.51l-14.427-60.842h28.526l-69.992-287.95h-28.408l-15.833-63.255h180.02l15.465 63.255h-28.769l7.1147 28.525 78.971 67.572 40.032-95.947h-43.822l-15.493-63.406h232.47l15.508 63.406h-48.11l-75.862 184.68 121.36 103.12h45.103" fill="#003976"/></g></g></svg>
